<svg width="280" height="280" viewBox="0 0 280 280" fill="none" xmlns="http://www.w3.org/2000/svg">
  <!-- 黑色二维码背景和图案 -->
  <rect width="280" height="280" fill="white"/>
  
  <!-- 左上角方块 -->
  <rect x="20" y="20" width="60" height="60" stroke="black" stroke-width="10" fill="white"/>
  <rect x="35" y="35" width="30" height="30" fill="black"/>
  
  <!-- 右上角方块 -->
  <rect x="200" y="20" width="60" height="60" stroke="black" stroke-width="10" fill="white"/>
  <rect x="215" y="35" width="30" height="30" fill="black"/>
  
  <!-- 左下角方块 -->
  <rect x="20" y="200" width="60" height="60" stroke="black" stroke-width="10" fill="white"/>
  <rect x="35" y="215" width="30" height="30" fill="black"/>
  
  <!-- 二维码数据点 - 简化表示 -->
  <rect x="100" y="20" width="10" height="10" fill="black"/>
  <rect x="120" y="20" width="10" height="10" fill="black"/>
  <rect x="140" y="20" width="10" height="10" fill="black"/>
  <rect x="180" y="20" width="10" height="10" fill="black"/>
  
  <rect x="20" y="100" width="10" height="10" fill="black"/>
  <rect x="40" y="100" width="10" height="10" fill="black"/>
  <rect x="90" y="90" width="10" height="10" fill="black"/>
  <rect x="120" y="90" width="10" height="10" fill="black"/>
  <rect x="150" y="90" width="10" height="10" fill="black"/>
  <rect x="180" y="90" width="10" height="10" fill="black"/>
  <rect x="200" y="100" width="10" height="10" fill="black"/>
  <rect x="240" y="100" width="10" height="10" fill="black"/>
  
  <rect x="60" y="120" width="10" height="10" fill="black"/>
  <rect x="90" y="130" width="10" height="10" fill="black"/>
  <rect x="180" y="130" width="10" height="10" fill="black"/>
  <rect x="210" y="120" width="10" height="10" fill="black"/>
  
  <rect x="20" y="180" width="10" height="10" fill="black"/>
  <rect x="60" y="180" width="10" height="10" fill="black"/>
  <rect x="90" y="170" width="10" height="10" fill="black"/>
  <rect x="180" y="170" width="10" height="10" fill="black"/>
  <rect x="210" y="180" width="10" height="10" fill="black"/>
  <rect x="240" y="180" width="10" height="10" fill="black"/>
  
  <rect x="100" y="240" width="10" height="10" fill="black"/>
  <rect x="130" y="240" width="10" height="10" fill="black"/>
  <rect x="160" y="240" width="10" height="10" fill="black"/>
  <rect x="190" y="240" width="10" height="10" fill="black"/>
  
  <!-- 更多随机数据点 -->
  <rect x="70" y="40" width="10" height="10" fill="black"/>
  <rect x="100" y="50" width="10" height="10" fill="black"/>
  <rect x="140" y="60" width="10" height="10" fill="black"/>
  <rect x="170" y="40" width="10" height="10" fill="black"/>
  
  <rect x="40" y="70" width="10" height="10" fill="black"/>
  <rect x="70" y="70" width="10" height="10" fill="black"/>
  <rect x="100" y="70" width="10" height="10" fill="black"/>
  <rect x="130" y="70" width="10" height="10" fill="black"/>
  <rect x="210" y="70" width="10" height="10" fill="black"/>
  <rect x="240" y="70" width="10" height="10" fill="black"/>
  
  <rect x="40" y="160" width="10" height="10" fill="black"/>
  <rect x="70" y="160" width="10" height="10" fill="black"/>
  <rect x="130" y="160" width="10" height="10" fill="black"/>
  <rect x="200" y="160" width="10" height="10" fill="black"/>
  <rect x="230" y="160" width="10" height="10" fill="black"/>
  
  <rect x="40" y="200" width="10" height="10" fill="black"/>
  <rect x="70" y="200" width="10" height="10" fill="black"/>
  <rect x="100" y="200" width="10" height="10" fill="black"/>
  <rect x="140" y="200" width="10" height="10" fill="black"/>
  <rect x="170" y="190" width="10" height="10" fill="black"/>
  <rect x="200" y="200" width="10" height="10" fill="black"/>
  
  <rect x="70" y="220" width="10" height="10" fill="black"/>
  <rect x="110" y="220" width="10" height="10" fill="black"/>
  <rect x="150" y="220" width="10" height="10" fill="black"/>
  <rect x="190" y="220" width="10" height="10" fill="black"/>
  <rect x="230" y="220" width="10" height="10" fill="black"/>
  
  <!-- 中心鲸鱼Logo -->
  <circle cx="140" cy="140" r="30" fill="white"/>
  <path d="M160 140C160 135 158 131 156 128C154 125 152 123 149 122C147 121 145 121 143 121C135 122 127 124 118 127C116 128 114 128 112 129C110 130 107 130 105 130C103 130 100 129 98 128C96 126 94 125 93 122C92 120 92 119 92 117C92 115 92 114 93 112C94 109 96 107 98 105C101 103 103 102 106 101C108 101 110 101 112 101C114 101 116 101 118 101C120 102 122 102 124 103C126 103 128 104 130 106C132 103 133 99 133 96C133 94 133 93 132 91C132 89 131 87 130 86C129 84 127 83 125 82C123 82 122 81 120 81C118 81 116 82 114 82C112 82 110 83 108 83C103 85 98 88 94 91C89 94 86 98 83 102C80 106 78 111 77 115C76 120 76 125 77 129C78 134 80 139 83 143C86 148 89 151 94 154C98 157 103 159 108 160C113 161 118 162 123 161C128 160 132 158 137 156C138 155 139 155 140 154C141 154 142 153 143 152C144 151 145 150 145 148C146 147 146 146 146 145C146 143 146 142 145 141C145 139 144 138 143 137C141 135 139 133 136 132C133 131 130 131 128 132C125 132 123 133 121 135C119 136 117 138 116 140C116 141 115 141 115 142C115 142 115 143 115 143C115 144 115 145 116 146C114 146 111 146 109 146C107 146 104 145 102 145C98 144 94 142 91 140C87 138 85 135 83 132C81 129 79 126 79 122C78 119 78 116 79 113C80 109 81 106 83 103C82 107 83 111 85 114C87 117 90 120 94 122C96 123 98 123 100 123C103 123 105 123 107 122C109 121 111 120 113 119C115 118 117 117 120 116C122 115 124 114 127 114C128 114 130 114 132 114C133 115 135 115 136 117C137 117 137 118 138 119C138 120 138 121 138 122C138 124 137 125 136 127C137 124 138 121 138 118C138 116 138 113 137 111C137 110 137 109 136 107C136 106 135 105 134 104C133 103 132 102 131 101C129 100 128 100 126 100C125 100 124 99 122 100C114 100 107 102 99 104C97 105 95 106 94 106C91 107 89 108 87 107C85 107 84 106 82 105C80 105 78 104 77 102C76 101 75 100 74 98C73 97 73 95 73 94C72 92 72 91 73 89C73 88 74 86 75 85C76 84 77 83 79 82C81 81 82 80 84 80C86 80 88 80 89 81C90 81 91 81 92 82C92 82 93 82 93 81C94 80 95 79 95 78L96 77C95 77 95 78 94 78C94 77 93 77 93 77C93 76 93 76 93 76C92 76 92 76 91 76C90 76 89 75 88 76C87 76 86 76 85 77C83 78 81 79 80 81C78 82 77 84 76 86C75 88 75 90 76 92C76 94 77 96 78 97C79 99 81 100 82 101C84 102 86 103 88 102C89 102 91 102 92 101C93 101 93 100 94 100C94 100 95 99 95 99C96 98 96 97 97 97C98 96 98 94 99 94C99 93 100 92 100 91C101 90 101 89 101 88C102 87 102 86 102 84C103 83 103 82 103 81C103 80 103 79 103 78C103 77 103 76 103 75C103 74 103 73 103 72C103 71 103 70 103 69C103 68 102 68 101 68C100 68 100 68 99 68C99 68 98 69 98 69C97 70 97 70 97 71C97 72 97 72 97 73C97 74 97 74 97 75C97 76 97 77 96 78C96 79 96 80 95 81C95 82 94 83 94 84C94 84 93 85 93 85C92 86 91 86 91 87C90 87 89 87 89 87C88 87 87 87 86 87C85 87 84 87 83 86C82 86 82 85 81 85C80 84 80 83 79 82C79 81 79 80 79 79C79 78 79 77 80 76C80 75 81 74 82 73C83 72 84 72 85 72C86 71 87 71 88 71C89 72 90 72 91 72C92 72 93 73 94 73C95 74 96 74 96 75C97 75 97 76 97 76" fill="#3E77F5"/>
</svg> 