<svg width="48" height="48" viewBox="0 0 48 48" fill="none" xmlns="http://www.w3.org/2000/svg">
  <path d="M41.7 24.4C41.6 23.9 41.4 23.5 41.2 23.1C40.9 22.6 40.5 22.1 40 21.8C39.5 21.4 38.9 21.2 38.3 21.1C37.9 21 37.5 21 37.1 21C33.7 21.2 30.4 22 27.1 23.2C26.5 23.5 25.8 23.8 25.2 24.1C24.5 24.5 23.7 24.6 22.9 24.5C22.2 24.3 21.5 24 20.9 23.5C20.2 23 19.7 22.3 19.4 21.6C19.2 21 19.1 20.5 19.1 19.9C19.1 19.3 19.3 18.7 19.5 18.2C20 17.1 20.8 16.2 21.8 15.5C22.8 14.8 24 14.4 25.2 14.2C26 14.1 26.8 14.1 27.6 14.1C28.4 14.1 29.3 14.2 30.1 14.3C30.9 14.4 31.8 14.6 32.6 14.9C33.3 15.1 34 15.5 34.6 15.9C35.4 14.7 35.8 13.3 35.8 11.9C35.8 11.2 35.7 10.5 35.5 9.8C35.3 9.2 35 8.5 34.5 8C34.1 7.5 33.5 7.1 32.8 6.9C32.2 6.7 31.6 6.6 30.9 6.6C30.1 6.6 29.2 6.7 28.4 6.9C27.6 7.1 26.8 7.3 26 7.6C23.9 8.4 22 9.6 20.3 11C18.6 12.5 17.2 14.2 16.1 16.1C15.1 18 14.4 20 14.1 22.1C13.8 24.2 13.9 26.4 14.3 28.5C14.7 30.6 15.5 32.7 16.7 34.5C17.9 36.4 19.4 38 21.2 39.3C22.9 40.6 24.9 41.5 27 42C29.1 42.5 31.3 42.6 33.4 42.3C35.5 42 37.6 41.3 39.4 40.2C39.7 40 39.9 39.8 40.2 39.6C40.4 39.4 40.7 39.1 40.9 38.8C41.2 38.5 41.3 38.2 41.5 37.8C41.6 37.5 41.7 37.1 41.7 36.8C41.7 36.3 41.6 35.9 41.5 35.4C41.3 34.9 41.1 34.5 40.8 34.1C40.2 33.3 39.3 32.7 38.3 32.4C37.3 32.1 36.3 32.1 35.3 32.3C34.3 32.5 33.4 33 32.6 33.6C31.9 34.2 31.3 35 30.9 35.9C30.8 36.1 30.7 36.3 30.7 36.6C30.6 36.8 30.6 37 30.6 37.3C30.6 37.8 30.7 38.2 31 38.6C30.1 38.7 29.2 38.7 28.3 38.6C27.4 38.5 26.5 38.4 25.6 38.1C24.1 37.6 22.7 36.8 21.5 35.8C20.3 34.8 19.3 33.5 18.5 32.2C17.8 30.8 17.3 29.4 17.1 27.9C16.9 26.4 17 24.9 17.3 23.4C17.7 22 18.3 20.6 19.1 19.4C18.8 21.2 19.1 23 19.9 24.6C20.7 26.2 22 27.5 23.6 28.3C24.5 28.7 25.4 28.9 26.4 28.9C27.4 28.9 28.3 28.7 29.2 28.3C30.1 28 31 27.5 31.9 27.1C32.8 26.7 33.7 26.3 34.7 26C35.6 25.7 36.6 25.4 37.6 25.3C38.2 25.2 38.9 25.2 39.5 25.3C40.1 25.4 40.7 25.7 41.2 26.1C41.5 26.3 41.7 26.6 41.8 27C41.9 27.3 42 27.7 41.9 28.1C41.9 28.9 41.6 29.7 41.2 30.4C41.7 29.3 41.9 28.1 41.9 26.9C41.9 26.1 41.8 25.2 41.7 24.4Z" fill="#3E77F5"/>
  <path d="M11 19.2C10.8 18.3 10.3 17.5 9.6 16.9C9 16.3 8.1 15.9 7.2 15.8C6.3 15.7 5.3 15.9 4.6 16.4C3.9 16.9 3.3 17.6 3 18.4C2.7 19.3 2.7 20.2 3 21.1C3.3 22 3.9 22.8 4.6 23.3C5.4 23.9 6.3 24.1 7.2 24.1C8.1 24.1 9 23.8 9.7 23.2C10.1 22.9 10.4 22.5 10.6 22.1C10.8 21.6 11 21.1 11 20.6V19.2Z" fill="#3E77F5"/>
</svg> 